# xmcd
#
# Track frame offsets:
#	150
#	19193
#	61451
#	93826
#	116574
#	141865
#	184017
#	210103
#	235710
#	263332
#
# Disc length: 3748 seconds
#
# Revision: 0
# Processed by: cddbd v1.5.1PL2 Copyright (c) Steve Scherf et al.
# Submitted via: EasyCDDAExtractor 8.2.1.1
#
DISCID=780ea20a
DTITLE=willard grant conspiracy - let it roll
DYEAR=2006
DGENRE=country
TTITLE0=from a distant shore
TTITLE1=let it roll
TTITLE2=dance with me
TTITLE3=crush
TTITLE4=flying low
TTITLE5=skeleton
TTITLE6=breach
TTITLE7=mary of the angels
TTITLE8=ballad of a thin man
TTITLE9=lady of the snowline
EXTD=
EXTT0=
EXTT1=
EXTT2=
EXTT3=
EXTT4=
EXTT5=
EXTT6=
EXTT7=
EXTT8=
EXTT9=
PLAYORDER=
